<svg xmlns="http://www.w3.org/2000/svg" xmlns:xlink="http://www.w3.org/1999/xlink" width="305" zoomAndPan="magnify" viewBox="0 0 228.75 76.499998" height="102" preserveAspectRatio="xMidYMid meet" version="1.2"><defs><clipPath id="29482fd8da"><path d="M 58.53125 45.660156 L 66.457031 45.660156 L 66.457031 53.617188 L 58.53125 53.617188 Z M 58.53125 45.660156 "/></clipPath><clipPath id="f2bc0217db"><path d="M 66.910156 22.332031 L 87.777344 22.332031 L 87.777344 53.617188 L 66.910156 53.617188 Z M 66.910156 22.332031 "/></clipPath><clipPath id="c5c03a68f5"><path d="M 2.140625 22.332031 L 77 22.332031 L 77 53.617188 L 2.140625 53.617188 Z M 2.140625 22.332031 "/></clipPath></defs><g id="a3bc9c6899"><g clip-rule="nonzero" clip-path="url(#29482fd8da)"><path style=" stroke:none;fill-rule:nonzero;fill:#737373;fill-opacity:1;" d="M 63.027344 53.617188 L 66.382812 53.617188 L 66.382812 50.257812 L 63.027344 50.257812 Z M 58.65625 53.617188 L 62.015625 53.617188 L 62.015625 50.257812 L 58.65625 50.257812 Z M 63.027344 45.785156 L 63.027344 49.144531 L 66.382812 49.144531 L 66.382812 45.785156 Z M 58.65625 49.144531 L 62.015625 49.144531 L 62.015625 45.785156 L 58.65625 45.785156 L 58.65625 49.144531 "/></g><g clip-rule="nonzero" clip-path="url(#f2bc0217db)"><path style=" stroke:none;fill-rule:nonzero;fill:#fbb02e;fill-opacity:1;" d="M 87.777344 34.664062 L 76.988281 22.332031 L 66.941406 22.332031 L 77.730469 34.660156 L 68.371094 45.351562 L 75.605469 53.617188 L 85.652344 53.617188 L 78.421875 45.355469 L 87.777344 34.664062 "/></g><g clip-rule="nonzero" clip-path="url(#c5c03a68f5)"><path style=" stroke:none;fill-rule:nonzero;fill:#272727;fill-opacity:1;" d="M 76.988281 22.332031 L 66.941406 22.332031 L 39.5625 53.617188 L 49.613281 53.617188 L 53.625 49.03125 L 53.625 40.640625 L 51.378906 41.429688 L 53.625 39.632812 L 56.832031 39.632812 L 56.832031 45.367188 Z M 48.226562 22.332031 L 20.851562 53.617188 L 30.902344 53.617188 L 58.277344 22.332031 Z M 29.515625 22.332031 L 2.140625 53.617188 L 12.1875 53.617188 L 39.566406 22.332031 L 29.515625 22.332031 "/></g><g style="fill:#272727;fill-opacity:1;"><g transform="translate(92.856022, 43.940726)"><path style="stroke:none" d="M 10.890625 0.453125 C 9.421875 0.453125 8.070312 0.222656 6.84375 -0.234375 C 5.625 -0.703125 4.5625 -1.359375 3.65625 -2.203125 C 2.757812 -3.046875 2.0625 -4.046875 1.5625 -5.203125 C 1.0625 -6.359375 0.8125 -7.640625 0.8125 -9.046875 C 0.8125 -10.441406 1.0625 -11.71875 1.5625 -12.875 C 2.0625 -14.03125 2.757812 -15.023438 3.65625 -15.859375 C 4.5625 -16.703125 5.625 -17.347656 6.84375 -17.796875 C 8.070312 -18.242188 9.421875 -18.46875 10.890625 -18.46875 C 12.359375 -18.46875 13.710938 -18.203125 14.953125 -17.671875 C 16.191406 -17.148438 17.226562 -16.429688 18.0625 -15.515625 C 18.90625 -14.609375 19.453125 -13.566406 19.703125 -12.390625 L 15.203125 -11.59375 C 14.984375 -12.4375 14.46875 -13.125 13.65625 -13.65625 C 12.84375 -14.195312 11.921875 -14.46875 10.890625 -14.46875 C 9.890625 -14.46875 9 -14.238281 8.21875 -13.78125 C 7.4375 -13.320312 6.820312 -12.6875 6.375 -11.875 C 5.925781 -11.0625 5.703125 -10.117188 5.703125 -9.046875 C 5.703125 -7.984375 5.929688 -7.035156 6.390625 -6.203125 C 6.859375 -5.378906 7.492188 -4.726562 8.296875 -4.25 C 9.109375 -3.78125 10.03125 -3.546875 11.0625 -3.546875 C 11.925781 -3.546875 12.703125 -3.707031 13.390625 -4.03125 C 14.085938 -4.363281 14.648438 -4.816406 15.078125 -5.390625 C 15.515625 -5.960938 15.765625 -6.625 15.828125 -7.375 L 9.171875 -7.375 L 9.171875 -10.15625 L 20.515625 -10.15625 C 20.648438 -8.582031 20.507812 -7.144531 20.09375 -5.84375 C 19.6875 -4.550781 19.050781 -3.4375 18.1875 -2.5 C 17.320312 -1.5625 16.273438 -0.832031 15.046875 -0.3125 C 13.816406 0.195312 12.429688 0.453125 10.890625 0.453125 Z M 10.890625 0.453125 "/></g></g><g style="fill:#272727;fill-opacity:1;"><g transform="translate(116.663243, 43.940726)"><path style="stroke:none" d="M 1.421875 0 L 1.421875 -18.078125 L 15.265625 -18.078125 L 15.265625 -14.265625 L 6.125 -14.265625 L 6.125 -10.71875 L 14.796875 -10.71875 L 14.796875 -7.59375 L 6.125 -7.59375 L 6.125 -3.828125 L 15.53125 -3.828125 L 15.53125 0 Z M 1.421875 0 "/></g></g><g style="fill:#272727;fill-opacity:1;"><g transform="translate(135.354445, 43.940726)"><path style="stroke:none" d="M 1.421875 0 L 1.421875 -18.078125 L 6.515625 -18.078125 L 13.140625 -6.25 L 13.375 -6.25 L 13.375 -18.078125 L 17.9375 -18.078125 L 17.9375 0 L 12.8125 0 L 6.1875 -11.78125 L 5.953125 -11.78125 L 5.953125 0 Z M 1.421875 0 "/></g></g><g style="fill:#272727;fill-opacity:1;"><g transform="translate(157.135519, 43.940726)"><path style="stroke:none" d="M 1.421875 0 L 1.421875 -18.078125 L 6.328125 -18.078125 L 6.328125 0 Z M 1.421875 0 "/></g></g><g style="fill:#272727;fill-opacity:1;"><g transform="translate(167.291581, 43.940726)"><path style="stroke:none" d="M 9.59375 0.375 C 7.945312 0.375 6.492188 0.0546875 5.234375 -0.578125 C 3.972656 -1.222656 2.992188 -2.132812 2.296875 -3.3125 C 1.609375 -4.5 1.265625 -5.898438 1.265625 -7.515625 L 1.265625 -18.078125 L 6.15625 -18.078125 L 6.15625 -7.703125 C 6.15625 -6.429688 6.460938 -5.429688 7.078125 -4.703125 C 7.691406 -3.984375 8.53125 -3.625 9.59375 -3.625 C 10.644531 -3.625 11.484375 -3.988281 12.109375 -4.71875 C 12.734375 -5.457031 13.046875 -6.453125 13.046875 -7.703125 L 13.046875 -18.078125 L 17.9375 -18.078125 L 17.9375 -7.515625 C 17.9375 -5.898438 17.585938 -4.5 16.890625 -3.3125 C 16.203125 -2.132812 15.234375 -1.222656 13.984375 -0.578125 C 12.734375 0.0546875 11.269531 0.375 9.59375 0.375 Z M 9.59375 0.375 "/></g></g><g style="fill:#272727;fill-opacity:1;"><g transform="translate(188.895368, 43.940726)"><path style="stroke:none" d="M 1.421875 0 L 1.421875 -18.078125 L 6.515625 -18.078125 L 13.140625 -6.25 L 13.375 -6.25 L 13.375 -18.078125 L 17.9375 -18.078125 L 17.9375 0 L 12.8125 0 L 6.1875 -11.78125 L 5.953125 -11.78125 L 5.953125 0 Z M 1.421875 0 "/></g></g><g style="fill:#272727;fill-opacity:1;"><g transform="translate(210.676441, 43.940726)"><path style="stroke:none" d="M 1.421875 0 L 1.421875 -18.078125 L 15.265625 -18.078125 L 15.265625 -14.265625 L 6.125 -14.265625 L 6.125 -10.71875 L 14.796875 -10.71875 L 14.796875 -7.59375 L 6.125 -7.59375 L 6.125 -3.828125 L 15.53125 -3.828125 L 15.53125 0 Z M 1.421875 0 "/></g></g><g style="fill:#272727;fill-opacity:1;"><g transform="translate(94.31002, 52.559498)"><path style="stroke:none" d="M 1.515625 -3.390625 C 1.953125 -3.390625 2.269531 -3.296875 2.46875 -3.109375 C 2.664062 -2.921875 2.765625 -2.660156 2.765625 -2.328125 C 2.765625 -2.179688 2.742188 -2.039062 2.703125 -1.90625 C 2.660156 -1.769531 2.585938 -1.648438 2.484375 -1.546875 C 2.378906 -1.441406 2.242188 -1.359375 2.078125 -1.296875 C 1.910156 -1.234375 1.703125 -1.203125 1.453125 -1.203125 L 1.140625 -1.203125 L 1.140625 0 L 0.421875 0 L 0.421875 -3.390625 Z M 1.46875 -2.796875 L 1.140625 -2.796875 L 1.140625 -1.796875 L 1.375 -1.796875 C 1.507812 -1.796875 1.625 -1.8125 1.71875 -1.84375 C 1.820312 -1.882812 1.898438 -1.941406 1.953125 -2.015625 C 2.015625 -2.085938 2.046875 -2.1875 2.046875 -2.3125 C 2.046875 -2.476562 2 -2.597656 1.90625 -2.671875 C 1.8125 -2.753906 1.664062 -2.796875 1.46875 -2.796875 Z M 1.46875 -2.796875 "/></g></g><g style="fill:#272727;fill-opacity:1;"><g transform="translate(98.776643, 52.559498)"><path style="stroke:none" d="M 1.421875 -3.390625 C 1.722656 -3.390625 1.972656 -3.351562 2.171875 -3.28125 C 2.378906 -3.207031 2.53125 -3.09375 2.625 -2.9375 C 2.71875 -2.789062 2.765625 -2.601562 2.765625 -2.375 C 2.765625 -2.21875 2.734375 -2.082031 2.671875 -1.96875 C 2.617188 -1.851562 2.546875 -1.753906 2.453125 -1.671875 C 2.359375 -1.585938 2.253906 -1.523438 2.140625 -1.484375 L 3.140625 0 L 2.34375 0 L 1.53125 -1.296875 L 1.140625 -1.296875 L 1.140625 0 L 0.421875 0 L 0.421875 -3.390625 Z M 1.359375 -2.796875 L 1.140625 -2.796875 L 1.140625 -1.890625 L 1.375 -1.890625 C 1.613281 -1.890625 1.785156 -1.925781 1.890625 -2 C 1.992188 -2.082031 2.046875 -2.203125 2.046875 -2.359375 C 2.046875 -2.515625 1.988281 -2.625 1.875 -2.6875 C 1.769531 -2.757812 1.597656 -2.796875 1.359375 -2.796875 Z M 1.359375 -2.796875 "/></g></g><g style="fill:#272727;fill-opacity:1;"><g transform="translate(103.396572, 52.559498)"><path style="stroke:none" d="M 3.5 -1.703125 C 3.5 -1.441406 3.46875 -1.203125 3.40625 -0.984375 C 3.34375 -0.773438 3.242188 -0.59375 3.109375 -0.4375 C 2.972656 -0.28125 2.804688 -0.160156 2.609375 -0.078125 C 2.410156 0.00390625 2.171875 0.046875 1.890625 0.046875 C 1.609375 0.046875 1.367188 0.00390625 1.171875 -0.078125 C 0.972656 -0.160156 0.804688 -0.28125 0.671875 -0.4375 C 0.535156 -0.59375 0.4375 -0.773438 0.375 -0.984375 C 0.3125 -1.203125 0.28125 -1.441406 0.28125 -1.703125 C 0.28125 -2.054688 0.335938 -2.363281 0.453125 -2.625 C 0.566406 -2.882812 0.742188 -3.082031 0.984375 -3.21875 C 1.222656 -3.363281 1.523438 -3.4375 1.890625 -3.4375 C 2.265625 -3.4375 2.566406 -3.363281 2.796875 -3.21875 C 3.035156 -3.082031 3.210938 -2.882812 3.328125 -2.625 C 3.441406 -2.363281 3.5 -2.054688 3.5 -1.703125 Z M 1.03125 -1.703125 C 1.03125 -1.460938 1.054688 -1.253906 1.109375 -1.078125 C 1.171875 -0.910156 1.265625 -0.78125 1.390625 -0.6875 C 1.523438 -0.601562 1.691406 -0.5625 1.890625 -0.5625 C 2.097656 -0.5625 2.265625 -0.601562 2.390625 -0.6875 C 2.515625 -0.78125 2.601562 -0.910156 2.65625 -1.078125 C 2.71875 -1.253906 2.75 -1.460938 2.75 -1.703125 C 2.75 -2.054688 2.679688 -2.332031 2.546875 -2.53125 C 2.421875 -2.738281 2.203125 -2.84375 1.890625 -2.84375 C 1.691406 -2.84375 1.523438 -2.796875 1.390625 -2.703125 C 1.265625 -2.609375 1.171875 -2.476562 1.109375 -2.3125 C 1.054688 -2.144531 1.03125 -1.941406 1.03125 -1.703125 Z M 1.03125 -1.703125 "/></g></g><g style="fill:#272727;fill-opacity:1;"><g transform="translate(108.662247, 52.559498)"><path style="stroke:none" d="M 1.515625 -3.390625 C 1.953125 -3.390625 2.269531 -3.296875 2.46875 -3.109375 C 2.664062 -2.921875 2.765625 -2.660156 2.765625 -2.328125 C 2.765625 -2.179688 2.742188 -2.039062 2.703125 -1.90625 C 2.660156 -1.769531 2.585938 -1.648438 2.484375 -1.546875 C 2.378906 -1.441406 2.242188 -1.359375 2.078125 -1.296875 C 1.910156 -1.234375 1.703125 -1.203125 1.453125 -1.203125 L 1.140625 -1.203125 L 1.140625 0 L 0.421875 0 L 0.421875 -3.390625 Z M 1.46875 -2.796875 L 1.140625 -2.796875 L 1.140625 -1.796875 L 1.375 -1.796875 C 1.507812 -1.796875 1.625 -1.8125 1.71875 -1.84375 C 1.820312 -1.882812 1.898438 -1.941406 1.953125 -2.015625 C 2.015625 -2.085938 2.046875 -2.1875 2.046875 -2.3125 C 2.046875 -2.476562 2 -2.597656 1.90625 -2.671875 C 1.8125 -2.753906 1.664062 -2.796875 1.46875 -2.796875 Z M 1.46875 -2.796875 "/></g></g><g style="fill:#272727;fill-opacity:1;"><g transform="translate(113.12887, 52.559498)"><path style="stroke:none" d="M 2.375 0 L 0.421875 0 L 0.421875 -3.390625 L 2.375 -3.390625 L 2.375 -2.796875 L 1.140625 -2.796875 L 1.140625 -2.0625 L 2.296875 -2.0625 L 2.296875 -1.46875 L 1.140625 -1.46875 L 1.140625 -0.59375 L 2.375 -0.59375 Z M 2.375 0 "/></g></g><g style="fill:#272727;fill-opacity:1;"><g transform="translate(117.27262, 52.559498)"><path style="stroke:none" d="M 1.421875 -3.390625 C 1.722656 -3.390625 1.972656 -3.351562 2.171875 -3.28125 C 2.378906 -3.207031 2.53125 -3.09375 2.625 -2.9375 C 2.71875 -2.789062 2.765625 -2.601562 2.765625 -2.375 C 2.765625 -2.21875 2.734375 -2.082031 2.671875 -1.96875 C 2.617188 -1.851562 2.546875 -1.753906 2.453125 -1.671875 C 2.359375 -1.585938 2.253906 -1.523438 2.140625 -1.484375 L 3.140625 0 L 2.34375 0 L 1.53125 -1.296875 L 1.140625 -1.296875 L 1.140625 0 L 0.421875 0 L 0.421875 -3.390625 Z M 1.359375 -2.796875 L 1.140625 -2.796875 L 1.140625 -1.890625 L 1.375 -1.890625 C 1.613281 -1.890625 1.785156 -1.925781 1.890625 -2 C 1.992188 -2.082031 2.046875 -2.203125 2.046875 -2.359375 C 2.046875 -2.515625 1.988281 -2.625 1.875 -2.6875 C 1.769531 -2.757812 1.597656 -2.796875 1.359375 -2.796875 Z M 1.359375 -2.796875 "/></g></g><g style="fill:#272727;fill-opacity:1;"><g transform="translate(121.89255, 52.559498)"><path style="stroke:none" d="M 1.734375 0 L 1.015625 0 L 1.015625 -2.796875 L 0.09375 -2.796875 L 0.09375 -3.390625 L 2.65625 -3.390625 L 2.65625 -2.796875 L 1.734375 -2.796875 Z M 1.734375 0 "/></g></g><g style="fill:#272727;fill-opacity:1;"><g transform="translate(126.12689, 52.559498)"><path style="stroke:none" d="M 0.421875 0 L 0.421875 -3.390625 L 1.140625 -3.390625 L 1.140625 0 Z M 0.421875 0 "/></g></g><g style="fill:#272727;fill-opacity:1;"><g transform="translate(129.181236, 52.559498)"><path style="stroke:none" d="M 2.375 0 L 0.421875 0 L 0.421875 -3.390625 L 2.375 -3.390625 L 2.375 -2.796875 L 1.140625 -2.796875 L 1.140625 -2.0625 L 2.296875 -2.0625 L 2.296875 -1.46875 L 1.140625 -1.46875 L 1.140625 -0.59375 L 2.375 -0.59375 Z M 2.375 0 "/></g></g><g style="fill:#272727;fill-opacity:1;"><g transform="translate(133.324986, 52.559498)"><path style="stroke:none" d="M 2.421875 -0.9375 C 2.421875 -0.738281 2.375 -0.5625 2.28125 -0.40625 C 2.1875 -0.257812 2.046875 -0.144531 1.859375 -0.0625 C 1.671875 0.0078125 1.441406 0.046875 1.171875 0.046875 C 1.054688 0.046875 0.941406 0.0351562 0.828125 0.015625 C 0.722656 0.00390625 0.617188 -0.015625 0.515625 -0.046875 C 0.410156 -0.078125 0.3125 -0.113281 0.21875 -0.15625 L 0.21875 -0.828125 C 0.375 -0.753906 0.539062 -0.6875 0.71875 -0.625 C 0.894531 -0.570312 1.066406 -0.546875 1.234375 -0.546875 C 1.347656 -0.546875 1.441406 -0.5625 1.515625 -0.59375 C 1.585938 -0.625 1.640625 -0.664062 1.671875 -0.71875 C 1.703125 -0.769531 1.71875 -0.832031 1.71875 -0.90625 C 1.71875 -0.988281 1.6875 -1.0625 1.625 -1.125 C 1.570312 -1.1875 1.492188 -1.242188 1.390625 -1.296875 C 1.296875 -1.347656 1.1875 -1.40625 1.0625 -1.46875 C 0.988281 -1.5 0.90625 -1.539062 0.8125 -1.59375 C 0.71875 -1.644531 0.628906 -1.707031 0.546875 -1.78125 C 0.460938 -1.863281 0.390625 -1.960938 0.328125 -2.078125 C 0.273438 -2.191406 0.25 -2.320312 0.25 -2.46875 C 0.25 -2.675781 0.296875 -2.847656 0.390625 -2.984375 C 0.484375 -3.128906 0.613281 -3.238281 0.78125 -3.3125 C 0.957031 -3.394531 1.164062 -3.4375 1.40625 -3.4375 C 1.582031 -3.4375 1.75 -3.414062 1.90625 -3.375 C 2.070312 -3.332031 2.238281 -3.273438 2.40625 -3.203125 L 2.1875 -2.640625 C 2.03125 -2.703125 1.890625 -2.75 1.765625 -2.78125 C 1.640625 -2.820312 1.507812 -2.84375 1.375 -2.84375 C 1.289062 -2.84375 1.21875 -2.828125 1.15625 -2.796875 C 1.09375 -2.765625 1.039062 -2.722656 1 -2.671875 C 0.96875 -2.617188 0.953125 -2.5625 0.953125 -2.5 C 0.953125 -2.414062 0.976562 -2.347656 1.03125 -2.296875 C 1.082031 -2.242188 1.15625 -2.191406 1.25 -2.140625 C 1.34375 -2.085938 1.457031 -2.023438 1.59375 -1.953125 C 1.769531 -1.867188 1.921875 -1.78125 2.046875 -1.6875 C 2.171875 -1.601562 2.265625 -1.5 2.328125 -1.375 C 2.390625 -1.257812 2.421875 -1.113281 2.421875 -0.9375 Z M 2.421875 -0.9375 "/></g></g><g style="fill:#272727;fill-opacity:1;"><g transform="translate(137.427845, 52.559498)"><path style="stroke:none" d=""/></g></g><g style="fill:#272727;fill-opacity:1;"><g transform="translate(140.143058, 52.559498)"><path style="stroke:none" d="M 0.484375 -3.390625 L 1.40625 -3.390625 C 1.820312 -3.390625 2.128906 -3.320312 2.328125 -3.1875 C 2.523438 -3.0625 2.625 -2.851562 2.625 -2.5625 C 2.625 -2.4375 2.597656 -2.316406 2.546875 -2.203125 C 2.492188 -2.097656 2.414062 -2.007812 2.3125 -1.9375 C 2.21875 -1.863281 2.097656 -1.816406 1.953125 -1.796875 L 1.953125 -1.78125 C 2.128906 -1.75 2.269531 -1.695312 2.375 -1.625 C 2.488281 -1.5625 2.570312 -1.472656 2.625 -1.359375 C 2.6875 -1.253906 2.71875 -1.125 2.71875 -0.96875 C 2.71875 -0.738281 2.664062 -0.550781 2.5625 -0.40625 C 2.457031 -0.269531 2.316406 -0.164062 2.140625 -0.09375 C 1.960938 -0.03125 1.753906 0 1.515625 0 L 0.484375 0 Z M 0.71875 -1.890625 L 1.46875 -1.890625 C 1.789062 -1.890625 2.019531 -1.941406 2.15625 -2.046875 C 2.300781 -2.160156 2.375 -2.328125 2.375 -2.546875 C 2.375 -2.773438 2.296875 -2.9375 2.140625 -3.03125 C 1.984375 -3.132812 1.738281 -3.1875 1.40625 -3.1875 L 0.71875 -3.1875 Z M 0.71875 -1.671875 L 0.71875 -0.21875 L 1.515625 -0.21875 C 1.828125 -0.21875 2.0625 -0.28125 2.21875 -0.40625 C 2.382812 -0.53125 2.46875 -0.71875 2.46875 -0.96875 C 2.46875 -1.132812 2.425781 -1.269531 2.34375 -1.375 C 2.269531 -1.476562 2.160156 -1.550781 2.015625 -1.59375 C 1.867188 -1.644531 1.6875 -1.671875 1.46875 -1.671875 Z M 0.71875 -1.671875 "/></g></g><g style="fill:#272727;fill-opacity:1;"><g transform="translate(144.605036, 52.559498)"><path style="stroke:none" d="M 2.96875 -3.390625 L 2.96875 -1.203125 C 2.96875 -0.929688 2.914062 -0.703125 2.8125 -0.515625 C 2.71875 -0.335938 2.570312 -0.195312 2.375 -0.09375 C 2.1875 0 1.960938 0.046875 1.703125 0.046875 C 1.296875 0.046875 0.984375 -0.0625 0.765625 -0.28125 C 0.546875 -0.5 0.4375 -0.804688 0.4375 -1.203125 L 0.4375 -3.390625 L 0.671875 -3.390625 L 0.671875 -1.203125 C 0.671875 -0.867188 0.757812 -0.613281 0.9375 -0.4375 C 1.113281 -0.257812 1.367188 -0.171875 1.703125 -0.171875 C 1.921875 -0.171875 2.109375 -0.207031 2.265625 -0.28125 C 2.421875 -0.363281 2.535156 -0.476562 2.609375 -0.625 C 2.691406 -0.769531 2.734375 -0.953125 2.734375 -1.171875 L 2.734375 -3.390625 Z M 2.96875 -3.390625 "/></g></g><g style="fill:#272727;fill-opacity:1;"><g transform="translate(149.506027, 52.559498)"><path style="stroke:none" d="M 0.484375 0 L 0.484375 -3.390625 L 0.71875 -3.390625 L 0.71875 0 Z M 0.484375 0 "/></g></g><g style="fill:#272727;fill-opacity:1;"><g transform="translate(152.184075, 52.559498)"><path style="stroke:none" d="M 0.484375 0 L 0.484375 -3.390625 L 0.71875 -3.390625 L 0.71875 -0.21875 L 2.328125 -0.21875 L 2.328125 0 Z M 0.484375 0 "/></g></g><g style="fill:#272727;fill-opacity:1;"><g transform="translate(156.102511, 52.559498)"><path style="stroke:none" d="M 3.0625 -1.734375 C 3.0625 -1.347656 2.992188 -1.023438 2.859375 -0.765625 C 2.722656 -0.515625 2.523438 -0.320312 2.265625 -0.1875 C 2.003906 -0.0625 1.679688 0 1.296875 0 L 0.484375 0 L 0.484375 -3.390625 L 1.390625 -3.390625 C 1.753906 -3.390625 2.054688 -3.328125 2.296875 -3.203125 C 2.546875 -3.078125 2.734375 -2.890625 2.859375 -2.640625 C 2.992188 -2.390625 3.0625 -2.085938 3.0625 -1.734375 Z M 2.8125 -1.71875 C 2.8125 -2.039062 2.753906 -2.3125 2.640625 -2.53125 C 2.535156 -2.75 2.375 -2.910156 2.15625 -3.015625 C 1.945312 -3.128906 1.675781 -3.1875 1.34375 -3.1875 L 0.71875 -3.1875 L 0.71875 -0.21875 L 1.28125 -0.21875 C 1.789062 -0.21875 2.171875 -0.34375 2.421875 -0.59375 C 2.679688 -0.84375 2.8125 -1.21875 2.8125 -1.71875 Z M 2.8125 -1.71875 "/></g></g><g style="fill:#272727;fill-opacity:1;"><g transform="translate(160.940786, 52.559498)"><path style="stroke:none" d=""/></g></g><g style="fill:#272727;fill-opacity:1;"><g transform="translate(163.655999, 52.559498)"><path style="stroke:none" d="M 1.359375 0 L 1.125 0 L 1.125 -3.171875 L 0.015625 -3.171875 L 0.015625 -3.390625 L 2.46875 -3.390625 L 2.46875 -3.171875 L 1.359375 -3.171875 Z M 1.359375 0 "/></g></g><g style="fill:#272727;fill-opacity:1;"><g transform="translate(167.630183, 52.559498)"><path style="stroke:none" d="M 2.9375 0 L 2.703125 0 L 2.703125 -1.671875 L 0.71875 -1.671875 L 0.71875 0 L 0.484375 0 L 0.484375 -3.390625 L 0.71875 -3.390625 L 0.71875 -1.890625 L 2.703125 -1.890625 L 2.703125 -3.390625 L 2.9375 -3.390625 Z M 2.9375 0 "/></g></g><g style="fill:#272727;fill-opacity:1;"><g transform="translate(172.531175, 52.559498)"><path style="stroke:none" d="M 2.328125 0 L 0.484375 0 L 0.484375 -3.390625 L 2.328125 -3.390625 L 2.328125 -3.171875 L 0.71875 -3.171875 L 0.71875 -1.890625 L 2.234375 -1.890625 L 2.234375 -1.671875 L 0.71875 -1.671875 L 0.71875 -0.21875 L 2.328125 -0.21875 Z M 2.328125 0 "/></g></g><g style="fill:#272727;fill-opacity:1;"><g transform="translate(176.63776, 52.559498)"><path style="stroke:none" d=""/></g></g><g style="fill:#272727;fill-opacity:1;"><g transform="translate(179.352973, 52.559498)"><path style="stroke:none" d="M 0.484375 -3.390625 L 1.40625 -3.390625 C 1.820312 -3.390625 2.128906 -3.320312 2.328125 -3.1875 C 2.523438 -3.0625 2.625 -2.851562 2.625 -2.5625 C 2.625 -2.4375 2.597656 -2.316406 2.546875 -2.203125 C 2.492188 -2.097656 2.414062 -2.007812 2.3125 -1.9375 C 2.21875 -1.863281 2.097656 -1.816406 1.953125 -1.796875 L 1.953125 -1.78125 C 2.128906 -1.75 2.269531 -1.695312 2.375 -1.625 C 2.488281 -1.5625 2.570312 -1.472656 2.625 -1.359375 C 2.6875 -1.253906 2.71875 -1.125 2.71875 -0.96875 C 2.71875 -0.738281 2.664062 -0.550781 2.5625 -0.40625 C 2.457031 -0.269531 2.316406 -0.164062 2.140625 -0.09375 C 1.960938 -0.03125 1.753906 0 1.515625 0 L 0.484375 0 Z M 0.71875 -1.890625 L 1.46875 -1.890625 C 1.789062 -1.890625 2.019531 -1.941406 2.15625 -2.046875 C 2.300781 -2.160156 2.375 -2.328125 2.375 -2.546875 C 2.375 -2.773438 2.296875 -2.9375 2.140625 -3.03125 C 1.984375 -3.132812 1.738281 -3.1875 1.40625 -3.1875 L 0.71875 -3.1875 Z M 0.71875 -1.671875 L 0.71875 -0.21875 L 1.515625 -0.21875 C 1.828125 -0.21875 2.0625 -0.28125 2.21875 -0.40625 C 2.382812 -0.53125 2.46875 -0.71875 2.46875 -0.96875 C 2.46875 -1.132812 2.425781 -1.269531 2.34375 -1.375 C 2.269531 -1.476562 2.160156 -1.550781 2.015625 -1.59375 C 1.867188 -1.644531 1.6875 -1.671875 1.46875 -1.671875 Z M 0.71875 -1.671875 "/></g></g><g style="fill:#272727;fill-opacity:1;"><g transform="translate(183.81495, 52.559498)"><path style="stroke:none" d="M 2.328125 0 L 0.484375 0 L 0.484375 -3.390625 L 2.328125 -3.390625 L 2.328125 -3.171875 L 0.71875 -3.171875 L 0.71875 -1.890625 L 2.234375 -1.890625 L 2.234375 -1.671875 L 0.71875 -1.671875 L 0.71875 -0.21875 L 2.328125 -0.21875 Z M 2.328125 0 "/></g></g><g style="fill:#272727;fill-opacity:1;"><g transform="translate(187.921535, 52.559498)"><path style="stroke:none" d="M 2.34375 -0.875 C 2.34375 -0.675781 2.289062 -0.503906 2.1875 -0.359375 C 2.082031 -0.222656 1.941406 -0.117188 1.765625 -0.046875 C 1.597656 0.015625 1.40625 0.046875 1.1875 0.046875 C 1.039062 0.046875 0.910156 0.0351562 0.796875 0.015625 C 0.691406 0.00390625 0.59375 -0.0078125 0.5 -0.03125 C 0.414062 -0.0507812 0.332031 -0.0703125 0.25 -0.09375 L 0.25 -0.34375 C 0.375 -0.289062 0.515625 -0.25 0.671875 -0.21875 C 0.828125 -0.1875 1 -0.171875 1.1875 -0.171875 C 1.363281 -0.171875 1.519531 -0.191406 1.65625 -0.234375 C 1.800781 -0.285156 1.910156 -0.363281 1.984375 -0.46875 C 2.066406 -0.570312 2.109375 -0.703125 2.109375 -0.859375 C 2.109375 -1.003906 2.070312 -1.117188 2 -1.203125 C 1.9375 -1.296875 1.835938 -1.375 1.703125 -1.4375 C 1.578125 -1.5 1.414062 -1.566406 1.21875 -1.640625 C 1.070312 -1.679688 0.941406 -1.726562 0.828125 -1.78125 C 0.722656 -1.832031 0.628906 -1.894531 0.546875 -1.96875 C 0.460938 -2.039062 0.398438 -2.125 0.359375 -2.21875 C 0.316406 -2.320312 0.296875 -2.441406 0.296875 -2.578125 C 0.296875 -2.765625 0.34375 -2.921875 0.4375 -3.046875 C 0.53125 -3.179688 0.660156 -3.28125 0.828125 -3.34375 C 0.992188 -3.40625 1.175781 -3.4375 1.375 -3.4375 C 1.539062 -3.4375 1.695312 -3.421875 1.84375 -3.390625 C 1.988281 -3.359375 2.128906 -3.316406 2.265625 -3.265625 L 2.1875 -3.046875 C 2.039062 -3.109375 1.898438 -3.148438 1.765625 -3.171875 C 1.628906 -3.203125 1.5 -3.21875 1.375 -3.21875 C 1.207031 -3.21875 1.0625 -3.191406 0.9375 -3.140625 C 0.8125 -3.097656 0.710938 -3.03125 0.640625 -2.9375 C 0.566406 -2.84375 0.53125 -2.722656 0.53125 -2.578125 C 0.53125 -2.429688 0.5625 -2.3125 0.625 -2.21875 C 0.695312 -2.132812 0.796875 -2.0625 0.921875 -2 C 1.046875 -1.9375 1.195312 -1.878906 1.375 -1.828125 C 1.570312 -1.753906 1.742188 -1.679688 1.890625 -1.609375 C 2.035156 -1.535156 2.144531 -1.441406 2.21875 -1.328125 C 2.300781 -1.210938 2.34375 -1.0625 2.34375 -0.875 Z M 2.34375 -0.875 "/></g></g><g style="fill:#272727;fill-opacity:1;"><g transform="translate(191.995601, 52.559498)"><path style="stroke:none" d="M 1.359375 0 L 1.125 0 L 1.125 -3.171875 L 0.015625 -3.171875 L 0.015625 -3.390625 L 2.46875 -3.390625 L 2.46875 -3.171875 L 1.359375 -3.171875 Z M 1.359375 0 "/></g></g><g style="fill:#272727;fill-opacity:1;"><g transform="translate(195.969785, 52.559498)"><path style="stroke:none" d=""/></g></g><g style="fill:#272727;fill-opacity:1;"><g transform="translate(198.684998, 52.559498)"><path style="stroke:none" d="M 0.71875 0 L 0.484375 0 L 0.484375 -3.390625 L 2.328125 -3.390625 L 2.328125 -3.171875 L 0.71875 -3.171875 L 0.71875 -1.734375 L 2.25 -1.734375 L 2.25 -1.515625 L 0.71875 -1.515625 Z M 0.71875 0 "/></g></g><g style="fill:#272727;fill-opacity:1;"><g transform="translate(202.554655, 52.559498)"><path style="stroke:none" d="M 3.328125 -1.703125 C 3.328125 -1.441406 3.296875 -1.203125 3.234375 -0.984375 C 3.171875 -0.773438 3.078125 -0.59375 2.953125 -0.4375 C 2.828125 -0.28125 2.664062 -0.160156 2.46875 -0.078125 C 2.28125 0.00390625 2.0625 0.046875 1.8125 0.046875 C 1.5625 0.046875 1.335938 0.00390625 1.140625 -0.078125 C 0.953125 -0.160156 0.796875 -0.28125 0.671875 -0.4375 C 0.546875 -0.59375 0.453125 -0.773438 0.390625 -0.984375 C 0.328125 -1.203125 0.296875 -1.441406 0.296875 -1.703125 C 0.296875 -2.046875 0.351562 -2.347656 0.46875 -2.609375 C 0.582031 -2.867188 0.753906 -3.070312 0.984375 -3.21875 C 1.210938 -3.363281 1.492188 -3.4375 1.828125 -3.4375 C 2.148438 -3.4375 2.421875 -3.367188 2.640625 -3.234375 C 2.867188 -3.097656 3.039062 -2.898438 3.15625 -2.640625 C 3.269531 -2.378906 3.328125 -2.066406 3.328125 -1.703125 Z M 0.546875 -1.703125 C 0.546875 -1.398438 0.585938 -1.128906 0.671875 -0.890625 C 0.765625 -0.660156 0.90625 -0.484375 1.09375 -0.359375 C 1.289062 -0.234375 1.53125 -0.171875 1.8125 -0.171875 C 2.101562 -0.171875 2.34375 -0.234375 2.53125 -0.359375 C 2.71875 -0.484375 2.851562 -0.660156 2.9375 -0.890625 C 3.03125 -1.117188 3.078125 -1.390625 3.078125 -1.703125 C 3.078125 -2.179688 2.972656 -2.554688 2.765625 -2.828125 C 2.554688 -3.097656 2.242188 -3.234375 1.828125 -3.234375 C 1.546875 -3.234375 1.304688 -3.164062 1.109375 -3.03125 C 0.921875 -2.90625 0.78125 -2.726562 0.6875 -2.5 C 0.59375 -2.269531 0.546875 -2.003906 0.546875 -1.703125 Z M 0.546875 -1.703125 "/></g></g><g style="fill:#272727;fill-opacity:1;"><g transform="translate(207.669347, 52.559498)"><path style="stroke:none" d="M 1.296875 -3.390625 C 1.566406 -3.390625 1.789062 -3.359375 1.96875 -3.296875 C 2.15625 -3.242188 2.289062 -3.148438 2.375 -3.015625 C 2.46875 -2.878906 2.515625 -2.695312 2.515625 -2.46875 C 2.515625 -2.289062 2.484375 -2.140625 2.421875 -2.015625 C 2.359375 -1.898438 2.269531 -1.800781 2.15625 -1.71875 C 2.050781 -1.644531 1.925781 -1.585938 1.78125 -1.546875 L 2.71875 0 L 2.4375 0 L 1.5625 -1.46875 L 0.71875 -1.46875 L 0.71875 0 L 0.484375 0 L 0.484375 -3.390625 Z M 1.28125 -3.1875 L 0.71875 -3.1875 L 0.71875 -1.6875 L 1.390625 -1.6875 C 1.671875 -1.6875 1.882812 -1.75 2.03125 -1.875 C 2.1875 -2.007812 2.265625 -2.203125 2.265625 -2.453125 C 2.265625 -2.734375 2.179688 -2.925781 2.015625 -3.03125 C 1.859375 -3.132812 1.613281 -3.1875 1.28125 -3.1875 Z M 1.28125 -3.1875 "/></g></g><g style="fill:#272727;fill-opacity:1;"><g transform="translate(211.975695, 52.559498)"><path style="stroke:none" d=""/></g></g><g style="fill:#272727;fill-opacity:1;"><g transform="translate(214.690908, 52.559498)"><path style="stroke:none" d="M 1.25 -1.546875 L 2.25 -3.390625 L 2.5 -3.390625 L 1.375 -1.3125 L 1.375 0 L 1.140625 0 L 1.140625 -1.296875 L 0 -3.390625 L 0.265625 -3.390625 Z M 1.25 -1.546875 "/></g></g><g style="fill:#272727;fill-opacity:1;"><g transform="translate(218.681352, 52.559498)"><path style="stroke:none" d="M 3.328125 -1.703125 C 3.328125 -1.441406 3.296875 -1.203125 3.234375 -0.984375 C 3.171875 -0.773438 3.078125 -0.59375 2.953125 -0.4375 C 2.828125 -0.28125 2.664062 -0.160156 2.46875 -0.078125 C 2.28125 0.00390625 2.0625 0.046875 1.8125 0.046875 C 1.5625 0.046875 1.335938 0.00390625 1.140625 -0.078125 C 0.953125 -0.160156 0.796875 -0.28125 0.671875 -0.4375 C 0.546875 -0.59375 0.453125 -0.773438 0.390625 -0.984375 C 0.328125 -1.203125 0.296875 -1.441406 0.296875 -1.703125 C 0.296875 -2.046875 0.351562 -2.347656 0.46875 -2.609375 C 0.582031 -2.867188 0.753906 -3.070312 0.984375 -3.21875 C 1.210938 -3.363281 1.492188 -3.4375 1.828125 -3.4375 C 2.148438 -3.4375 2.421875 -3.367188 2.640625 -3.234375 C 2.867188 -3.097656 3.039062 -2.898438 3.15625 -2.640625 C 3.269531 -2.378906 3.328125 -2.066406 3.328125 -1.703125 Z M 0.546875 -1.703125 C 0.546875 -1.398438 0.585938 -1.128906 0.671875 -0.890625 C 0.765625 -0.660156 0.90625 -0.484375 1.09375 -0.359375 C 1.289062 -0.234375 1.53125 -0.171875 1.8125 -0.171875 C 2.101562 -0.171875 2.34375 -0.234375 2.53125 -0.359375 C 2.71875 -0.484375 2.851562 -0.660156 2.9375 -0.890625 C 3.03125 -1.117188 3.078125 -1.390625 3.078125 -1.703125 C 3.078125 -2.179688 2.972656 -2.554688 2.765625 -2.828125 C 2.554688 -3.097656 2.242188 -3.234375 1.828125 -3.234375 C 1.546875 -3.234375 1.304688 -3.164062 1.109375 -3.03125 C 0.921875 -2.90625 0.78125 -2.726562 0.6875 -2.5 C 0.59375 -2.269531 0.546875 -2.003906 0.546875 -1.703125 Z M 0.546875 -1.703125 "/></g></g><g style="fill:#272727;fill-opacity:1;"><g transform="translate(223.796043, 52.559498)"><path style="stroke:none" d="M 2.96875 -3.390625 L 2.96875 -1.203125 C 2.96875 -0.929688 2.914062 -0.703125 2.8125 -0.515625 C 2.71875 -0.335938 2.570312 -0.195312 2.375 -0.09375 C 2.1875 0 1.960938 0.046875 1.703125 0.046875 C 1.296875 0.046875 0.984375 -0.0625 0.765625 -0.28125 C 0.546875 -0.5 0.4375 -0.804688 0.4375 -1.203125 L 0.4375 -3.390625 L 0.671875 -3.390625 L 0.671875 -1.203125 C 0.671875 -0.867188 0.757812 -0.613281 0.9375 -0.4375 C 1.113281 -0.257812 1.367188 -0.171875 1.703125 -0.171875 C 1.921875 -0.171875 2.109375 -0.207031 2.265625 -0.28125 C 2.421875 -0.363281 2.535156 -0.476562 2.609375 -0.625 C 2.691406 -0.769531 2.734375 -0.953125 2.734375 -1.171875 L 2.734375 -3.390625 Z M 2.96875 -3.390625 "/></g></g></g></svg>