<svg xmlns="http://www.w3.org/2000/svg" xmlns:xlink="http://www.w3.org/1999/xlink" width="305" zoomAndPan="magnify" viewBox="0 0 228.75 76.499998" height="102" preserveAspectRatio="xMidYMid meet" version="1.2"><defs><clipPath id="44871623bd"><path d="M 207 27 L 220 27 L 220 41 L 207 41 Z M 207 27 "/></clipPath><clipPath id="c21dc72278"><path d="M 204.746094 29.742188 L 213.503906 21.648438 L 225.640625 34.78125 L 216.886719 42.875 Z M 204.746094 29.742188 "/></clipPath><clipPath id="97e6c3dc9b"><path d="M 204.746094 29.742188 L 213.503906 21.648438 L 225.640625 34.78125 L 216.886719 42.875 Z M 204.746094 29.742188 "/></clipPath><clipPath id="4e62deac72"><path d="M 213 21 L 226 21 L 226 35 L 213 35 Z M 213 21 "/></clipPath><clipPath id="74a5f8b521"><path d="M 211.09375 23.871094 L 219.851562 15.78125 L 231.988281 28.914062 L 223.234375 37.003906 Z M 211.09375 23.871094 "/></clipPath><clipPath id="914868396c"><path d="M 211.09375 23.871094 L 219.851562 15.78125 L 231.988281 28.914062 L 223.234375 37.003906 Z M 211.09375 23.871094 "/></clipPath></defs><g id="6435e8aee9"><g clip-rule="nonzero" clip-path="url(#44871623bd)"><g clip-rule="nonzero" clip-path="url(#c21dc72278)"><g clip-rule="nonzero" clip-path="url(#97e6c3dc9b)"><path style=" stroke:none;fill-rule:nonzero;fill:#ffd700;fill-opacity:1;" d="M 219.640625 28.289062 L 208.992188 27.816406 C 206.933594 27.722656 206.585938 31.730469 209.023438 31.796875 L 215.652344 31.976562 L 215.144531 38.644531 C 214.992188 40.675781 218.949219 40.890625 219.0625 38.824219 Z M 219.640625 28.289062 "/></g></g></g><g clip-rule="nonzero" clip-path="url(#4e62deac72)"><g clip-rule="nonzero" clip-path="url(#74a5f8b521)"><g clip-rule="nonzero" clip-path="url(#914868396c)"><path style=" stroke:none;fill-rule:nonzero;fill:#ffd700;fill-opacity:1;" d="M 225.988281 22.421875 L 215.339844 21.949219 C 213.28125 21.855469 212.9375 25.863281 215.371094 25.929688 L 222 26.109375 L 221.492188 32.777344 C 221.339844 34.808594 225.296875 35.023438 225.410156 32.957031 Z M 225.988281 22.421875 "/></g></g></g><g style="fill:#373643;fill-opacity:1;"><g transform="translate(1.959208, 51.391615)"><path style="stroke:none" d="M 0.21875 -4.8125 C 0.0703125 -5.4375 0.222656 -5.925781 0.671875 -6.28125 C 1.117188 -6.644531 1.617188 -6.828125 2.171875 -6.828125 C 2.597656 -6.828125 2.972656 -6.722656 3.296875 -6.515625 C 3.628906 -6.316406 3.835938 -6.007812 3.921875 -5.59375 C 4.160156 -4.90625 4.601562 -4.375 5.25 -4 C 5.894531 -3.632812 6.625 -3.378906 7.4375 -3.234375 C 8.25 -3.097656 9.003906 -3.03125 9.703125 -3.03125 C 10.253906 -3.03125 10.859375 -3.070312 11.515625 -3.15625 C 12.179688 -3.238281 12.8125 -3.390625 13.40625 -3.609375 C 14 -3.835938 14.488281 -4.15625 14.875 -4.5625 C 15.257812 -4.96875 15.453125 -5.488281 15.453125 -6.125 C 15.453125 -6.8125 15.171875 -7.3125 14.609375 -7.625 C 14.046875 -7.945312 13.328125 -8.175781 12.453125 -8.3125 C 11.578125 -8.445312 10.660156 -8.550781 9.703125 -8.625 C 8.617188 -8.707031 7.523438 -8.832031 6.421875 -9 C 5.328125 -9.164062 4.328125 -9.441406 3.421875 -9.828125 C 2.523438 -10.210938 1.800781 -10.769531 1.25 -11.5 C 0.695312 -12.238281 0.421875 -13.210938 0.421875 -14.421875 C 0.421875 -15.515625 0.695312 -16.453125 1.25 -17.234375 C 1.800781 -18.023438 2.519531 -18.671875 3.40625 -19.171875 C 4.300781 -19.671875 5.269531 -20.039062 6.3125 -20.28125 C 7.363281 -20.53125 8.390625 -20.65625 9.390625 -20.65625 C 10.492188 -20.65625 11.648438 -20.523438 12.859375 -20.265625 C 14.078125 -20.015625 15.191406 -19.5625 16.203125 -18.90625 C 17.210938 -18.257812 17.960938 -17.351562 18.453125 -16.1875 C 18.617188 -15.59375 18.492188 -15.097656 18.078125 -14.703125 C 17.671875 -14.304688 17.1875 -14.109375 16.625 -14.109375 C 16.289062 -14.109375 15.96875 -14.1875 15.65625 -14.34375 C 15.34375 -14.507812 15.125 -14.726562 15 -15 C 14.75 -15.664062 14.300781 -16.15625 13.65625 -16.46875 C 13.019531 -16.789062 12.316406 -17 11.546875 -17.09375 C 10.785156 -17.1875 10.078125 -17.234375 9.421875 -17.234375 C 8.992188 -17.234375 8.484375 -17.191406 7.890625 -17.109375 C 7.304688 -17.023438 6.738281 -16.875 6.1875 -16.65625 C 5.632812 -16.445312 5.171875 -16.15625 4.796875 -15.78125 C 4.429688 -15.414062 4.25 -14.953125 4.25 -14.390625 C 4.25 -13.710938 4.515625 -13.203125 5.046875 -12.859375 C 5.578125 -12.523438 6.28125 -12.289062 7.15625 -12.15625 C 8.039062 -12.03125 9.007812 -11.925781 10.0625 -11.84375 C 11.164062 -11.738281 12.265625 -11.613281 13.359375 -11.46875 C 14.453125 -11.332031 15.445312 -11.085938 16.34375 -10.734375 C 17.238281 -10.390625 17.953125 -9.859375 18.484375 -9.140625 C 19.015625 -8.429688 19.28125 -7.4375 19.28125 -6.15625 C 19.28125 -4.882812 18.976562 -3.832031 18.375 -3 C 17.769531 -2.164062 16.976562 -1.503906 16 -1.015625 C 15.019531 -0.523438 13.972656 -0.179688 12.859375 0.015625 C 11.753906 0.210938 10.703125 0.3125 9.703125 0.3125 C 8.867188 0.3125 7.960938 0.234375 6.984375 0.078125 C 6.003906 -0.078125 5.050781 -0.351562 4.125 -0.75 C 3.207031 -1.144531 2.394531 -1.671875 1.6875 -2.328125 C 0.988281 -2.984375 0.5 -3.8125 0.21875 -4.8125 Z M 0.21875 -4.8125 "/></g></g><g style="fill:#373643;fill-opacity:1;"><g transform="translate(21.364908, 51.391615)"><path style="stroke:none" d="M 15.671875 -16.25 C 16.222656 -16.25 16.671875 -16.078125 17.015625 -15.734375 C 17.359375 -15.398438 17.53125 -14.972656 17.53125 -14.453125 L 17.53125 -1.625 C 17.53125 -1.09375 17.332031 -0.6875 16.9375 -0.40625 C 16.539062 -0.132812 16.128906 0 15.703125 0 C 15.234375 0 14.8125 -0.140625 14.4375 -0.421875 C 14.070312 -0.710938 13.890625 -1.125 13.890625 -1.65625 L 13.890625 -1.78125 C 13.015625 -0.9375 12.109375 -0.375 11.171875 -0.09375 C 10.234375 0.175781 9.363281 0.3125 8.5625 0.3125 C 6.34375 0.3125 4.613281 -0.378906 3.375 -1.765625 C 2.144531 -3.160156 1.53125 -5.050781 1.53125 -7.4375 L 1.53125 -14.453125 C 1.53125 -14.941406 1.6875 -15.363281 2 -15.71875 C 2.320312 -16.070312 2.773438 -16.25 3.359375 -16.25 C 3.910156 -16.25 4.347656 -16.070312 4.671875 -15.71875 C 5.003906 -15.363281 5.171875 -14.941406 5.171875 -14.453125 L 5.171875 -7.375 C 5.171875 -5.988281 5.484375 -4.890625 6.109375 -4.078125 C 6.742188 -3.273438 7.738281 -2.875 9.09375 -2.875 C 9.5 -2.875 9.972656 -2.984375 10.515625 -3.203125 C 11.054688 -3.429688 11.582031 -3.769531 12.09375 -4.21875 C 12.601562 -4.664062 13.03125 -5.234375 13.375 -5.921875 C 13.71875 -6.609375 13.890625 -7.421875 13.890625 -8.359375 L 13.890625 -14.453125 C 13.890625 -14.972656 14.035156 -15.398438 14.328125 -15.734375 C 14.628906 -16.078125 15.078125 -16.25 15.671875 -16.25 Z M 15.671875 -16.25 "/></g></g><g style="fill:#373643;fill-opacity:1;"><g transform="translate(40.642932, 51.391615)"><path style="stroke:none" d="M 8.625 -16.25 C 9.195312 -16.25 9.648438 -16.125 9.984375 -15.875 C 10.328125 -15.632812 10.5 -15.238281 10.5 -14.6875 C 10.5 -14.175781 10.328125 -13.769531 9.984375 -13.46875 C 9.648438 -13.175781 9.195312 -13.03125 8.625 -13.03125 C 7.28125 -13.03125 6.335938 -12.550781 5.796875 -11.59375 C 5.253906 -10.632812 4.984375 -9.332031 4.984375 -7.6875 L 4.984375 -1.625 C 4.984375 -1.15625 4.8125 -0.765625 4.46875 -0.453125 C 4.125 -0.148438 3.707031 0 3.21875 0 C 2.664062 0 2.21875 -0.148438 1.875 -0.453125 C 1.539062 -0.765625 1.375 -1.15625 1.375 -1.625 L 1.375 -14.625 C 1.375 -15.132812 1.566406 -15.53125 1.953125 -15.8125 C 2.347656 -16.101562 2.769531 -16.25 3.21875 -16.25 C 3.664062 -16.25 4.070312 -16.109375 4.4375 -15.828125 C 4.800781 -15.554688 4.984375 -15.15625 4.984375 -14.625 L 4.984375 -14.421875 C 5.453125 -15.046875 5.992188 -15.503906 6.609375 -15.796875 C 7.222656 -16.097656 7.894531 -16.25 8.625 -16.25 Z M 8.625 -16.25 "/></g></g><g style="fill:#373643;fill-opacity:1;"><g transform="translate(50.186053, 51.391615)"><path style="stroke:none" d="M 14.875 -16.25 C 15.425781 -16.25 15.898438 -16.007812 16.296875 -15.53125 C 16.691406 -15.050781 16.769531 -14.492188 16.53125 -13.859375 L 7.21875 4.4375 C 7 4.84375 6.722656 5.160156 6.390625 5.390625 C 6.066406 5.628906 5.722656 5.75 5.359375 5.75 C 4.992188 5.75 4.65625 5.625 4.34375 5.375 C 4.039062 5.132812 3.832031 4.820312 3.71875 4.4375 C 3.601562 4.050781 3.648438 3.644531 3.859375 3.21875 L 6.28125 -1.5625 L 0 -13.71875 C -0.1875 -14.144531 -0.210938 -14.550781 -0.078125 -14.9375 C 0.0546875 -15.320312 0.28125 -15.632812 0.59375 -15.875 C 0.914062 -16.125 1.269531 -16.25 1.65625 -16.25 C 2 -16.25 2.328125 -16.140625 2.640625 -15.921875 C 2.960938 -15.710938 3.203125 -15.4375 3.359375 -15.09375 L 8.265625 -5.484375 L 13.1875 -15.125 C 13.332031 -15.46875 13.550781 -15.738281 13.84375 -15.9375 C 14.144531 -16.144531 14.488281 -16.25 14.875 -16.25 Z M 14.875 -16.25 "/></g></g><g style="fill:#373643;fill-opacity:1;"><g transform="translate(66.814909, 51.391615)"><path style="stroke:none" d="M 14.84375 -16.25 C 15.394531 -16.25 15.832031 -16.09375 16.15625 -15.78125 C 16.488281 -15.476562 16.65625 -15.082031 16.65625 -14.59375 L 16.65625 -1.65625 C 16.65625 -1.164062 16.488281 -0.765625 16.15625 -0.453125 C 15.832031 -0.148438 15.394531 0 14.84375 0 C 14.3125 0 13.894531 -0.117188 13.59375 -0.359375 C 13.300781 -0.609375 13.125 -0.9375 13.0625 -1.34375 C 12.332031 -0.769531 11.519531 -0.347656 10.625 -0.078125 C 9.738281 0.179688 8.890625 0.3125 8.078125 0.3125 C 6.546875 0.3125 5.21875 -0.0351562 4.09375 -0.734375 C 2.976562 -1.429688 2.125 -2.421875 1.53125 -3.703125 C 0.9375 -4.984375 0.640625 -6.472656 0.640625 -8.171875 C 0.640625 -9.828125 0.96875 -11.28125 1.625 -12.53125 C 2.289062 -13.789062 3.210938 -14.773438 4.390625 -15.484375 C 5.566406 -16.203125 6.929688 -16.5625 8.484375 -16.5625 C 9.171875 -16.5625 9.925781 -16.429688 10.75 -16.171875 C 11.582031 -15.921875 12.351562 -15.519531 13.0625 -14.96875 C 13.144531 -15.351562 13.332031 -15.660156 13.625 -15.890625 C 13.925781 -16.128906 14.332031 -16.25 14.84375 -16.25 Z M 8.453125 -2.90625 C 9.390625 -2.90625 10.296875 -3.113281 11.171875 -3.53125 C 12.046875 -3.945312 12.664062 -4.554688 13.03125 -5.359375 L 13.03125 -10.890625 C 12.625 -11.671875 12.015625 -12.273438 11.203125 -12.703125 C 10.390625 -13.128906 9.570312 -13.34375 8.75 -13.34375 C 7.40625 -13.34375 6.320312 -12.851562 5.5 -11.875 C 4.6875 -10.894531 4.28125 -9.648438 4.28125 -8.140625 C 4.28125 -6.566406 4.660156 -5.300781 5.421875 -4.34375 C 6.191406 -3.382812 7.203125 -2.90625 8.453125 -2.90625 Z M 8.453125 -2.90625 "/></g></g><g style="fill:#373643;fill-opacity:1;"><g transform="translate(85.263076, 51.391615)"><path style="stroke:none" d=""/></g></g><g style="fill:#373643;fill-opacity:1;"><g transform="translate(92.763462, 51.391615)"><path style="stroke:none" d="M -0.125 -17.96875 C -0.320312 -18.414062 -0.335938 -18.820312 -0.171875 -19.1875 C -0.015625 -19.550781 0.226562 -19.832031 0.5625 -20.03125 C 0.90625 -20.226562 1.269531 -20.328125 1.65625 -20.328125 C 2.039062 -20.328125 2.367188 -20.253906 2.640625 -20.109375 C 2.921875 -19.960938 3.144531 -19.707031 3.3125 -19.34375 L 10.34375 -5.875 L 17.234375 -19.28125 C 17.597656 -19.976562 18.140625 -20.328125 18.859375 -20.328125 C 19.242188 -20.328125 19.613281 -20.222656 19.96875 -20.015625 C 20.320312 -19.804688 20.570312 -19.515625 20.71875 -19.140625 C 20.863281 -18.765625 20.8125 -18.320312 20.5625 -17.8125 L 12 -0.984375 C 11.613281 -0.328125 11.0625 0 10.34375 0 C 10 0 9.664062 -0.0820312 9.34375 -0.25 C 9.03125 -0.425781 8.789062 -0.691406 8.625 -1.046875 Z M -0.125 -17.96875 "/></g></g><g style="fill:#373643;fill-opacity:1;"><g transform="translate(113.382032, 51.391615)"><path style="stroke:none" d="M 8.625 -16.25 C 9.195312 -16.25 9.648438 -16.125 9.984375 -15.875 C 10.328125 -15.632812 10.5 -15.238281 10.5 -14.6875 C 10.5 -14.175781 10.328125 -13.769531 9.984375 -13.46875 C 9.648438 -13.175781 9.195312 -13.03125 8.625 -13.03125 C 7.28125 -13.03125 6.335938 -12.550781 5.796875 -11.59375 C 5.253906 -10.632812 4.984375 -9.332031 4.984375 -7.6875 L 4.984375 -1.625 C 4.984375 -1.15625 4.8125 -0.765625 4.46875 -0.453125 C 4.125 -0.148438 3.707031 0 3.21875 0 C 2.664062 0 2.21875 -0.148438 1.875 -0.453125 C 1.539062 -0.765625 1.375 -1.15625 1.375 -1.625 L 1.375 -14.625 C 1.375 -15.132812 1.566406 -15.53125 1.953125 -15.8125 C 2.347656 -16.101562 2.769531 -16.25 3.21875 -16.25 C 3.664062 -16.25 4.070312 -16.109375 4.4375 -15.828125 C 4.800781 -15.554688 4.984375 -15.15625 4.984375 -14.625 L 4.984375 -14.421875 C 5.453125 -15.046875 5.992188 -15.503906 6.609375 -15.796875 C 7.222656 -16.097656 7.894531 -16.25 8.625 -16.25 Z M 8.625 -16.25 "/></g></g><g style="fill:#373643;fill-opacity:1;"><g transform="translate(122.925152, 51.391615)"><path style="stroke:none" d="M 15.671875 -16.25 C 16.222656 -16.25 16.671875 -16.078125 17.015625 -15.734375 C 17.359375 -15.398438 17.53125 -14.972656 17.53125 -14.453125 L 17.53125 -1.625 C 17.53125 -1.09375 17.332031 -0.6875 16.9375 -0.40625 C 16.539062 -0.132812 16.128906 0 15.703125 0 C 15.234375 0 14.8125 -0.140625 14.4375 -0.421875 C 14.070312 -0.710938 13.890625 -1.125 13.890625 -1.65625 L 13.890625 -1.78125 C 13.015625 -0.9375 12.109375 -0.375 11.171875 -0.09375 C 10.234375 0.175781 9.363281 0.3125 8.5625 0.3125 C 6.34375 0.3125 4.613281 -0.378906 3.375 -1.765625 C 2.144531 -3.160156 1.53125 -5.050781 1.53125 -7.4375 L 1.53125 -14.453125 C 1.53125 -14.941406 1.6875 -15.363281 2 -15.71875 C 2.320312 -16.070312 2.773438 -16.25 3.359375 -16.25 C 3.910156 -16.25 4.347656 -16.070312 4.671875 -15.71875 C 5.003906 -15.363281 5.171875 -14.941406 5.171875 -14.453125 L 5.171875 -7.375 C 5.171875 -5.988281 5.484375 -4.890625 6.109375 -4.078125 C 6.742188 -3.273438 7.738281 -2.875 9.09375 -2.875 C 9.5 -2.875 9.972656 -2.984375 10.515625 -3.203125 C 11.054688 -3.429688 11.582031 -3.769531 12.09375 -4.21875 C 12.601562 -4.664062 13.03125 -5.234375 13.375 -5.921875 C 13.71875 -6.609375 13.890625 -7.421875 13.890625 -8.359375 L 13.890625 -14.453125 C 13.890625 -14.972656 14.035156 -15.398438 14.328125 -15.734375 C 14.628906 -16.078125 15.078125 -16.25 15.671875 -16.25 Z M 15.671875 -16.25 "/></g></g><g style="fill:#373643;fill-opacity:1;"><g transform="translate(142.203177, 51.391615)"><path style="stroke:none" d="M 14.296875 -2.75 C 14.660156 -2.300781 14.804688 -1.867188 14.734375 -1.453125 C 14.660156 -1.035156 14.457031 -0.6875 14.125 -0.40625 C 13.789062 -0.132812 13.414062 0 13 0 C 12.414062 0 11.925781 -0.234375 11.53125 -0.703125 L 6.125 -6.703125 L 5.203125 -5.875 L 5.203125 -1.625 C 5.203125 -1.09375 5.003906 -0.6875 4.609375 -0.40625 C 4.210938 -0.132812 3.796875 0 3.359375 0 C 2.890625 0 2.472656 -0.132812 2.109375 -0.40625 C 1.742188 -0.6875 1.5625 -1.09375 1.5625 -1.625 L 1.5625 -19.03125 C 1.5625 -19.582031 1.742188 -19.988281 2.109375 -20.25 C 2.472656 -20.519531 2.898438 -20.65625 3.390625 -20.65625 C 3.878906 -20.65625 4.300781 -20.519531 4.65625 -20.25 C 5.019531 -19.988281 5.203125 -19.582031 5.203125 -19.03125 L 5.203125 -10.21875 L 11.109375 -15.734375 C 11.515625 -16.078125 11.960938 -16.25 12.453125 -16.25 C 12.960938 -16.25 13.394531 -16.082031 13.75 -15.75 C 14.113281 -15.425781 14.296875 -15.050781 14.296875 -14.625 C 14.296875 -14.21875 14.070312 -13.800781 13.625 -13.375 L 8.625 -8.9375 Z M 14.296875 -2.75 "/></g></g><g style="fill:#373643;fill-opacity:1;"><g transform="translate(156.725473, 51.391615)"><path style="stroke:none" d="M 0.421875 -3.796875 C 0.265625 -4.390625 0.398438 -4.867188 0.828125 -5.234375 C 1.253906 -5.597656 1.722656 -5.78125 2.234375 -5.78125 C 2.617188 -5.78125 2.957031 -5.664062 3.25 -5.4375 C 3.550781 -5.21875 3.773438 -4.882812 3.921875 -4.4375 C 4.054688 -4.050781 4.332031 -3.734375 4.75 -3.484375 C 5.175781 -3.242188 5.671875 -3.070312 6.234375 -2.96875 C 6.804688 -2.863281 7.378906 -2.8125 7.953125 -2.8125 C 9.097656 -2.8125 10.019531 -3.015625 10.71875 -3.421875 C 11.425781 -3.835938 11.78125 -4.367188 11.78125 -5.015625 C 11.78125 -5.460938 11.59375 -5.789062 11.21875 -6 C 10.84375 -6.21875 10.351562 -6.367188 9.75 -6.453125 C 9.144531 -6.535156 8.503906 -6.597656 7.828125 -6.640625 C 6.929688 -6.722656 6.050781 -6.828125 5.1875 -6.953125 C 4.320312 -7.085938 3.535156 -7.304688 2.828125 -7.609375 C 2.128906 -7.921875 1.566406 -8.378906 1.140625 -8.984375 C 0.722656 -9.585938 0.515625 -10.410156 0.515625 -11.453125 C 0.515625 -12.484375 0.8125 -13.378906 1.40625 -14.140625 C 2 -14.910156 2.835938 -15.503906 3.921875 -15.921875 C 5.003906 -16.347656 6.257812 -16.5625 7.6875 -16.5625 C 8.519531 -16.5625 9.414062 -16.484375 10.375 -16.328125 C 11.332031 -16.171875 12.21875 -15.847656 13.03125 -15.359375 C 13.851562 -14.867188 14.457031 -14.113281 14.84375 -13.09375 C 14.988281 -12.664062 14.976562 -12.285156 14.8125 -11.953125 C 14.644531 -11.617188 14.394531 -11.367188 14.0625 -11.203125 C 13.726562 -11.035156 13.394531 -10.953125 13.0625 -10.953125 C 12.675781 -10.953125 12.359375 -11.023438 12.109375 -11.171875 C 11.867188 -11.316406 11.660156 -11.570312 11.484375 -11.9375 C 11.296875 -12.382812 10.972656 -12.710938 10.515625 -12.921875 C 10.054688 -13.140625 9.566406 -13.273438 9.046875 -13.328125 C 8.523438 -13.378906 8.070312 -13.40625 7.6875 -13.40625 C 6.625 -13.40625 5.769531 -13.222656 5.125 -12.859375 C 4.476562 -12.503906 4.15625 -12.023438 4.15625 -11.421875 C 4.15625 -10.910156 4.320312 -10.566406 4.65625 -10.390625 C 5 -10.210938 5.460938 -10.109375 6.046875 -10.078125 C 6.628906 -10.046875 7.285156 -9.984375 8.015625 -9.890625 C 8.910156 -9.785156 9.789062 -9.671875 10.65625 -9.546875 C 11.53125 -9.421875 12.328125 -9.203125 13.046875 -8.890625 C 13.773438 -8.578125 14.351562 -8.117188 14.78125 -7.515625 C 15.207031 -6.910156 15.421875 -6.078125 15.421875 -5.015625 C 15.421875 -3.972656 15.101562 -3.046875 14.46875 -2.234375 C 13.84375 -1.421875 12.972656 -0.789062 11.859375 -0.34375 C 10.742188 0.09375 9.441406 0.3125 7.953125 0.3125 C 7.285156 0.3125 6.5625 0.265625 5.78125 0.171875 C 5.007812 0.078125 4.253906 -0.109375 3.515625 -0.390625 C 2.785156 -0.679688 2.144531 -1.097656 1.59375 -1.640625 C 1.039062 -2.179688 0.648438 -2.898438 0.421875 -3.796875 Z M 0.421875 -3.796875 "/></g></g><g style="fill:#373643;fill-opacity:1;"><g transform="translate(172.58829, 51.391615)"><path style="stroke:none" d="M 10.5625 -16.5625 C 12.050781 -16.5625 13.316406 -16.238281 14.359375 -15.59375 C 15.398438 -14.945312 16.195312 -14.046875 16.75 -12.890625 C 17.3125 -11.742188 17.59375 -10.40625 17.59375 -8.875 L 17.59375 -1.65625 C 17.59375 -1.164062 17.4375 -0.765625 17.125 -0.453125 C 16.8125 -0.148438 16.359375 0 15.765625 0 C 15.234375 0 14.796875 -0.148438 14.453125 -0.453125 C 14.117188 -0.765625 13.953125 -1.164062 13.953125 -1.65625 L 13.953125 -8.9375 C 13.953125 -10.257812 13.632812 -11.328125 13 -12.140625 C 12.375 -12.960938 11.394531 -13.375 10.0625 -13.375 C 9.65625 -13.375 9.179688 -13.28125 8.640625 -13.09375 C 8.097656 -12.914062 7.566406 -12.625 7.046875 -12.21875 C 6.535156 -11.820312 6.109375 -11.300781 5.765625 -10.65625 C 5.429688 -10.019531 5.265625 -9.234375 5.265625 -8.296875 L 5.265625 -1.65625 C 5.265625 -1.164062 5.109375 -0.765625 4.796875 -0.453125 C 4.492188 -0.148438 4.054688 0 3.484375 0 C 2.910156 0 2.453125 -0.148438 2.109375 -0.453125 C 1.765625 -0.765625 1.59375 -1.164062 1.59375 -1.65625 L 1.59375 -19.125 C 1.59375 -19.613281 1.789062 -19.988281 2.1875 -20.25 C 2.582031 -20.519531 3.003906 -20.65625 3.453125 -20.65625 C 3.921875 -20.65625 4.335938 -20.519531 4.703125 -20.25 C 5.078125 -19.988281 5.265625 -19.613281 5.265625 -19.125 L 5.265625 -14.78125 C 6.140625 -15.519531 7.046875 -16 7.984375 -16.21875 C 8.921875 -16.445312 9.78125 -16.5625 10.5625 -16.5625 Z M 10.5625 -16.5625 "/></g></g><g style="fill:#373643;fill-opacity:1;"><g transform="translate(191.962077, 51.391615)"><path style="stroke:none" d="M 14.84375 -16.25 C 15.394531 -16.25 15.832031 -16.09375 16.15625 -15.78125 C 16.488281 -15.476562 16.65625 -15.082031 16.65625 -14.59375 L 16.65625 -1.65625 C 16.65625 -1.164062 16.488281 -0.765625 16.15625 -0.453125 C 15.832031 -0.148438 15.394531 0 14.84375 0 C 14.3125 0 13.894531 -0.117188 13.59375 -0.359375 C 13.300781 -0.609375 13.125 -0.9375 13.0625 -1.34375 C 12.332031 -0.769531 11.519531 -0.347656 10.625 -0.078125 C 9.738281 0.179688 8.890625 0.3125 8.078125 0.3125 C 6.546875 0.3125 5.21875 -0.0351562 4.09375 -0.734375 C 2.976562 -1.429688 2.125 -2.421875 1.53125 -3.703125 C 0.9375 -4.984375 0.640625 -6.472656 0.640625 -8.171875 C 0.640625 -9.828125 0.96875 -11.28125 1.625 -12.53125 C 2.289062 -13.789062 3.210938 -14.773438 4.390625 -15.484375 C 5.566406 -16.203125 6.929688 -16.5625 8.484375 -16.5625 C 9.171875 -16.5625 9.925781 -16.429688 10.75 -16.171875 C 11.582031 -15.921875 12.351562 -15.519531 13.0625 -14.96875 C 13.144531 -15.351562 13.332031 -15.660156 13.625 -15.890625 C 13.925781 -16.128906 14.332031 -16.25 14.84375 -16.25 Z M 8.453125 -2.90625 C 9.390625 -2.90625 10.296875 -3.113281 11.171875 -3.53125 C 12.046875 -3.945312 12.664062 -4.554688 13.03125 -5.359375 L 13.03125 -10.890625 C 12.625 -11.671875 12.015625 -12.273438 11.203125 -12.703125 C 10.390625 -13.128906 9.570312 -13.34375 8.75 -13.34375 C 7.40625 -13.34375 6.320312 -12.851562 5.5 -11.875 C 4.6875 -10.894531 4.28125 -9.648438 4.28125 -8.140625 C 4.28125 -6.566406 4.660156 -5.300781 5.421875 -4.34375 C 6.191406 -3.382812 7.203125 -2.90625 8.453125 -2.90625 Z M 8.453125 -2.90625 "/></g></g></g></svg>